<svg xmlns="http://www.w3.org/2000/svg" width="489.059" height="150.085" viewBox="0 0 489.059 150.085"><g id="Group_11" data-name="Group 11" transform="translate(0)"><g id="Group_9" data-name="Group 9"><path id="Path_115" data-name="Path 115" d="M198.684,11.673c1.022-1.439,3.81-3.2,7.107-4.551a44.551,44.551,0,0,1,11.983-2.834,76.787,76.787,0,0,1,13.842-.418c3.018.325,3.111,1.162,3.065,3.855s-.232,7.246-.418,9.708-.372,2.833-1.764,3.2a26.538,26.538,0,0,1-7.432.6,73.357,73.357,0,0,1-11.612-1.626c-3.9-.837-7.432-1.858-9.754-2.6a12.04,12.04,0,0,1-4.366-2c-.929-.79-1.672-1.9-.651-3.345" fill="#0c1542" fill-rule="evenodd"></path><path id="Path_116" data-name="Path 116" d="M164.035,5.31H93.807a7.266,7.266,0,0,0-7.245,7.245h0A7.267,7.267,0,0,0,93.807,19.8h70.228a7.268,7.268,0,0,0,7.246-7.246h0a7.267,7.267,0,0,0-7.246-7.245" fill="#0c1542" fill-rule="evenodd"></path><path id="Path_117" data-name="Path 117" d="M45.4,24.238a26.05,26.05,0,0,0,6.885-5.226,9,9,0,0,0,2.648-6.2c-.093-1.927-1.161-3.6-6.363-4.806S34.032,6.053,25.556,5.682a158.848,158.848,0,0,0-20.391.092C.869,6.239-.107,7.169.009,8.863a10.966,10.966,0,0,0,3.182,6.062,30.893,30.893,0,0,0,6.038,4.3c1.672,1.045,2.509,1.788,2.6,3.367s-.557,4-1.718,7.92S7.279,39.867,5.433,45.115,1.565,55.427,1.205,58.364s.941,3.751,2.763,4.227a18.714,18.714,0,0,0,5.621.488,2.634,2.634,0,0,0,2.543-1.5,23.887,23.887,0,0,0,1.777-5.69c.731-3.158,1.685-7.918,3.206-12.9A82.152,82.152,0,0,1,22.77,29a25.833,25.833,0,0,1,5.6-7.525,4.637,4.637,0,0,1,3.739-1.37,4.96,4.96,0,0,1,3.019,1.44c.929.905,1.765,2.3,2.578,3.111a3.373,3.373,0,0,0,2.775,1.022A10.955,10.955,0,0,0,45.4,24.238" fill="#0c1542" fill-rule="evenodd"></path><path id="Path_118" data-name="Path 118" d="M48.27,23.476c-.279,3.53-.743,9.986-1.463,16.884S45.111,54.6,44.345,58.5,43.021,62.863,41.3,62.98a38.619,38.619,0,0,1-8.639-.86c-4.041-.743-9.244-2-13.47-2.973s-7.478-1.672-9.08-2.438-1.555-1.6-.651-4.2,2.672-6.968,3.74-9.1,1.44-2.044,2.275-.418A40.944,40.944,0,0,0,19.4,50.02a15.813,15.813,0,0,0,6.224,4.552,22.911,22.911,0,0,0,5.829,1.742c1.626.233,2.834.139,3.53-.673s.883-2.346,1.022-3.972a36.014,36.014,0,0,1,.511-4.5c.279-1.161.743-1.765,1.509-2.021a11.33,11.33,0,0,1,2.694-.208,1.862,1.862,0,0,0,1.928-1.254c.418-1.022.6-2.88.743-6.827s.233-9.987.372-13.54.325-4.622.766-5.319a1.693,1.693,0,0,1,1.881-.835,3.33,3.33,0,0,1,1.881,1.532c.349.65.256,1.255-.023,4.784" fill="#0c1542" fill-rule="evenodd"></path><path id="Path_119" data-name="Path 119" d="M39.817,24.451c-1.115,2.6-3.206,5.621-4.482,7.966A13.062,13.062,0,0,0,33.5,37.874a5.658,5.658,0,0,0,1,3.821c.816,1.172,2.171,2.311,3.378,3.68a17.744,17.744,0,0,1,2.73,4.03c.46,1.056.32,1.568-.515,1.477A8.618,8.618,0,0,1,35.963,48.5a29.4,29.4,0,0,1-5.226-6.649c-1.463-2.533-2.393-5.088-.558-9.152s6.433-9.638,8.732-12.425,2.3-2.787,2.23-1.695a16.96,16.96,0,0,1-1.324,5.875" fill="#0c1542" fill-rule="evenodd"></path><rect id="Rectangle_49" data-name="Rectangle 49" width="46.178" height="4.371" transform="translate(45.334 10.887)" fill="#0c1542"></rect><path id="Path_120" data-name="Path 120" d="M242.78,43.222l.637-1.974h23.155c-.353.165-.716.323-1.089.471a18.623,18.623,0,0,1-6.926,1.5Zm154.436-7.156H443.21v2.591H387.866l1.6-4.947h8.512Zm2.129-6.6h44.673v2.592H392.467v-.944H390.3l2.053-6.361h8.513Zm3.5-10.836h44.172v2.591H402.007l-.3.94h-8.512l1.979-6.124h8.511Zm2.625-8.129H449.9V13.1H404.632l-.114.352h-8.512l1.826-5.654h8.512ZM417.52,1.081h34.017V3.672H416.683l-.492,1.53H389.606l1.5-4.651h26.585ZM244.255,38.656l1.6-4.947h9.189l-1.015,3.143h3.564a8.742,8.742,0,0,0,6.9-3.143h9.873a15.971,15.971,0,0,1-3.276,4.469q-.254.244-.517.478Zm2.433-7.539,2.055-6.361h9.189l-2.054,6.361Zm2.892-8.953,1.976-6.124h9.19l-.616,1.91h3.563A7.617,7.617,0,0,0,269,16.04h9.49a13.412,13.412,0,0,1-3.351,3.173,13.015,13.015,0,0,1-3.519,1.662,6.4,6.4,0,0,1,2.315,1.289Zm2.813-8.716,1.825-5.654h9.19l-1.825,5.654ZM255.056,5.2,256.57.511h12.753a16.476,16.476,0,0,1,8.457,2.007A6.292,6.292,0,0,1,280.33,5.2Zm25.967,2.592V7.8a11.325,11.325,0,0,1-.65,4.532q-.184.573-.415,1.116h-9.078a10.625,10.625,0,0,0,.432-1.116c.572-1.774.434-3.118-.416-4.02a3.343,3.343,0,0,0-.614-.518Zm-5.361,16.962a9.406,9.406,0,0,1,.317,3.584,13.045,13.045,0,0,1-.582,2.777h-9.373c.034-.1.067-.193.1-.291q1.158-3.585-.124-5.212a3.151,3.151,0,0,0-1.028-.858Zm26.42,18.466H278.871l.637-1.974h23.211Zm-21.737-4.566,1.6-4.947h8.512l-1,3.111h14.7l-.594,1.836Zm2.433-7.539,2.056-6.361h8.512l-2.054,6.361Zm2.892-8.953,1.976-6.124h8.514l-1.977,6.124Zm2.814-8.716,1.825-5.654h8.513L297,13.448ZM291.146,5.2l1.5-4.651h8.513l-1.5,4.651ZM321.9,33.709l-2.64,4.947h-8.814l2.71-4.947Zm-7.323-2.592,3.485-6.361h8.548l-1.22,2.393H331.7l.323-2.393h8.562l-.645,6.361Zm4.9-8.953,3.355-6.124h8.221l-3.125,6.124Zm4.775-8.716,3.1-5.654H342.3l-.572,5.654h-8.181l.421-3.122-1.593,3.122ZM328.771,5.2,331.319.551h11.717L342.565,5.2Zm12.7,10.838-.621,6.124h-8.473l.826-6.124Zm-1.79,17.669-.5,4.947H330.31l.59-4.947Zm-21.8,7.539-1.052,1.974H307.94l1.082-1.974Zm21.037,0-.2,1.974h-8.946L330,41.248Zm35.6-7.539a14.383,14.383,0,0,1-3.323,4.947H347.31a7.958,7.958,0,0,1-.34-.965,10.548,10.548,0,0,1-.286-3.982h8.435a4.464,4.464,0,0,0,1.06,2.871,3.785,3.785,0,0,0,3.126,1.191,7.966,7.966,0,0,0,5.134-2.077,5.485,5.485,0,0,0,1.447-1.985Zm-8.091-2.592a6.041,6.041,0,0,0-1.715-3.528l-3.034-2.833h11.711a11.511,11.511,0,0,1,.919,1.738,12.255,12.255,0,0,1,.659,2.014,9.493,9.493,0,0,1,.2,2.609Zm-7.532-8.953a16.994,16.994,0,0,1-4.2-5.54c-.068-.194-.129-.388-.184-.584h10.167q.144.2.3.408a16.666,16.666,0,0,0,2.906,2.725,35.305,35.305,0,0,1,3.078,2.621c.123.124.244.247.361.37Zm-4.679-8.716a10.483,10.483,0,0,1,.523-2.818A14.194,14.194,0,0,1,356,7.794h9.124a7.075,7.075,0,0,0-1.555,2.692,5.4,5.4,0,0,0-.121,2.962ZM357.97,5.2a16.816,16.816,0,0,1,4.8-3.4A19.481,19.481,0,0,1,371.278,0a14.936,14.936,0,0,1,7.3,1.534,6.5,6.5,0,0,1,3,3.341q.063.162.12.327Zm24.122,2.592a10.719,10.719,0,0,1-.235,2.021l-8.515,1.118a5.872,5.872,0,0,0-.139-3.139Zm-14.23,33.454a18.043,18.043,0,0,1-5.325,2.006,22.809,22.809,0,0,1-4.882.479c-3.33,0-5.9-.623-7.686-1.87a7.731,7.731,0,0,1-.792-.615Zm27.68,0-.638,1.974h-8.512l.638-1.974Z" fill="#0c1542" fill-rule="evenodd"></path><path id="Path_121" data-name="Path 121" d="M315.08,56.539,308.113,69.08H247.36l-3.981,6.967h48.57l-5.832,11.426H236.85L227.3,104.194l-45.147-.836,25.639-45.7Z" fill="#e50019" fill-rule="evenodd"></path><path id="Path_122" data-name="Path 122" d="M445.781,54.032l-6.967,12.541H378.061L374.08,73.54h48.57l-5.832,11.426H367.551L358,101.687l-45.148-.837,25.64-45.7Z" fill="#e50019" fill-rule="evenodd"></path><path id="Path_123" data-name="Path 123" d="M193.759,114.157h18.678l-.823,4.815H199.921l-.613,3.585h10.847l-.787,4.6H198.522l-.761,4.447h12.032l-.874,5.107H189.9Z" fill="#0c1542"></path><path id="Path_124" data-name="Path 124" d="M233.268,133.419q1.152.907,1.513,1.138a14.675,14.675,0,0,0,1.482.784l-2.607,3.909a17.917,17.917,0,0,1-2.605-1.685A19.483,19.483,0,0,1,229.3,136.1a15.925,15.925,0,0,1-5.956,1q-5.139,0-7.65-2.677-2.966-3.168-1.984-8.908a14.07,14.07,0,0,1,4.548-8.654,13.491,13.491,0,0,1,9.105-3.085q5.616,0,8.154,3.016t1.578,8.63A14.486,14.486,0,0,1,233.268,133.419Zm-4.728-3.57a10.755,10.755,0,0,0,1.594-4.462q.583-3.414-.436-4.876a3.683,3.683,0,0,0-3.25-1.462,5.053,5.053,0,0,0-3.625,1.493,8.252,8.252,0,0,0-2.09,4.662q-.63,3.691.376,5.184a3.588,3.588,0,0,0,3.207,1.492,6.517,6.517,0,0,0,1.361-.139,6.873,6.873,0,0,0-2.5-1.6l1.522-2.508a5.173,5.173,0,0,1,1.367.415,14.623,14.623,0,0,1,1.787,1.293Q228.169,129.588,228.54,129.849Z" fill="#0c1542"></path><path id="Path_125" data-name="Path 125" d="M257.455,114.157h6.954l-2.3,13.438a12.756,12.756,0,0,1-1.269,3.774,10.3,10.3,0,0,1-2.485,3.1,9.806,9.806,0,0,1-3.111,1.869,15.2,15.2,0,0,1-5.006.753,29.47,29.47,0,0,1-3.554-.231,8.2,8.2,0,0,1-3.1-.914,6.337,6.337,0,0,1-2.06-1.946,5.854,5.854,0,0,1-1.04-2.6,12.916,12.916,0,0,1,.006-3.812l2.3-13.438h6.954l-2.353,13.757a3.463,3.463,0,0,0,.53,2.882,3.236,3.236,0,0,0,2.662,1.038,4.46,4.46,0,0,0,3-1.022,4.7,4.7,0,0,0,1.518-2.9Z" fill="#0c1542"></path><path id="Path_126" data-name="Path 126" d="M269.3,114.157h6.985l-3.858,22.554h-6.984Z" fill="#0c1542"></path><path id="Path_127" data-name="Path 127" d="M281.256,114.157h11.585q3.786,0,5.362,1.8t1.009,5.123a8.406,8.406,0,0,1-2.967,5.339,10.234,10.234,0,0,1-6.6,1.923h-3.815l-1.432,8.369h-7Zm5.356,9.615h1.708a4.956,4.956,0,0,0,2.951-.7,2.762,2.762,0,0,0,1.122-1.792,2.187,2.187,0,0,0-.4-1.8,3.2,3.2,0,0,0-2.536-.738h-1.985Z" fill="#0c1542"></path><path id="Path_128" data-name="Path 128" d="M303.964,114.157h9.166l1.189,13.723,5.856-13.723h9.161l-3.857,22.554H319.77l2.942-17.2-7.34,17.2h-5.166l-1.45-17.2-2.941,17.2h-5.707Z" fill="#0c1542"></path><path id="Path_129" data-name="Path 129" d="M333.765,114.157h18.678l-.823,4.815H339.927l-.613,3.585h10.847l-.786,4.6H338.528l-.761,4.447H349.8l-.874,5.107H329.909Z" fill="#0c1542"></path><path id="Path_130" data-name="Path 130" d="M356.582,114.157h6.508l6.359,12.478,2.134-12.478h6.569L374.3,136.711h-6.57L361.4,124.327l-2.117,12.384h-6.555Z" fill="#0c1542"></path><path id="Path_131" data-name="Path 131" d="M381.181,114.157h21.186l-.952,5.57h-7.108l-2.9,16.984h-6.971l2.9-16.984h-7.108Z" fill="#0c1542"></path><path id="Path_132" data-name="Path 132" d="M397.786,130.5h6.692l-.882,5.153a8.845,8.845,0,0,1-1.952,4.493,12.216,12.216,0,0,1-4.544,2.908l-.993-2.738a8.813,8.813,0,0,0,2.736-1.654,4.079,4.079,0,0,0,1.079-1.947h-3.2Z" fill="#0c1542"></path><path id="Path_133" data-name="Path 133" d="M422.257,114.157h6.985l-3.857,22.554H418.4Z" fill="#0c1542"></path><path id="Path_134" data-name="Path 134" d="M434.288,114.157H440.8l6.359,12.478,2.134-12.478h6.569L452,136.711h-6.569L439.1,124.327l-2.118,12.384H430.43Z" fill="#0c1542"></path><path id="Path_135" data-name="Path 135" d="M473.207,127.48,479,129.326a13.928,13.928,0,0,1-2.673,4.293,10.705,10.705,0,0,1-3.729,2.6,13.413,13.413,0,0,1-5.143.877,13.237,13.237,0,0,1-5.826-1.069,7.428,7.428,0,0,1-3.379-3.759,11.738,11.738,0,0,1-.515-6.888,14.01,14.01,0,0,1,4.448-8.6,13.208,13.208,0,0,1,8.937-3.006q4.262,0,6.406,1.723a8.141,8.141,0,0,1,2.719,5.292l-6.389,1.37a4.51,4.51,0,0,0-.419-1.508,3.127,3.127,0,0,0-1.221-1.23,3.662,3.662,0,0,0-1.818-.432,4.949,4.949,0,0,0-3.957,1.906,9.323,9.323,0,0,0-1.713,4.441q-.642,3.75.26,5.141a3.26,3.26,0,0,0,2.962,1.39,4.552,4.552,0,0,0,3.215-1.123A8.592,8.592,0,0,0,473.207,127.48Z" fill="#0c1542"></path><path id="Path_136" data-name="Path 136" d="M482.367,130.434h6.692l-1.074,6.277h-6.691Z" fill="#0c1542"></path><rect id="Rectangle_50" data-name="Rectangle 50" width="46.178" height="4.371" transform="translate(166.459 10.887)" fill="#0c1542"></rect></g><g id="Group_10" data-name="Group 10"><path id="Path_137" data-name="Path 137" d="M109.809,107.12A20.275,20.275,0,1,0,89.534,86.846a20.312,20.312,0,0,0,20.275,20.274" fill="#e50019" fill-rule="evenodd"></path><path id="Path_138" data-name="Path 138" d="M155.475,77.265c-1.329.631-2.73,1.333-4.207,2.039a42.269,42.269,0,1,1-15.392-25.528c1.334-.984,2.629-1.9,3.826-2.789,5.2-3.857,9.613-.922,17.113-6.361a62.918,62.918,0,1,0,12.378,20.5c-8.388,4.066-7.857,9.361-13.718,12.142" fill="#e50019" fill-rule="evenodd"></path><path id="Path_139" data-name="Path 139" d="M193.707,36.455s-14.663,3.933-2.374-14.215c0,0-3.609,1.875-8.465,4.823l-2.209,10.409-.484-8.739c-1.489.942-3.046,1.967-4.614,3.042L173.1,42.467s.07-7.1.027-8.983a65.768,65.768,0,0,0-11.638,10.243c-8.9,10.624-12.81,6.093-17.653,9.686s-11.874,7.812-14.061,17.811l-20,15.623L148.3,63.972s-4.308-3.372-.714-6.184,25.934-12.03,25.934-12.03l-11.837,9.989Z" fill="#0c123c"></path><path id="Path_140" data-name="Path 140" d="M193.707,36.455s-10.366,11.091,11.429,8.779c0,0-3.352,2.3-8.237,5.2l-10.225-2.945,7.485,4.537c-1.532.871-3.169,1.764-4.855,2.642l-10.59-2.861s6.3,3.278,7.939,4.2a65.823,65.823,0,0,1-14.511,5.454c-13.563,2.864-11.4,8.441-16.85,11.025s-12.478,6.806-22.33,4.035l-23.192,10.3L148.3,63.972s.719,5,4.891,3.153,22.811-17.231,22.811-17.231l-14.319,5.853Z" fill="#0c123c"></path></g></g></svg>