<?xml version="1.0" encoding="UTF-8" standalone="no"?>
<!DOCTYPE svg PUBLIC "-//W3C//DTD SVG 1.1//EN" "http://www.w3.org/Graphics/SVG/1.1/DTD/svg11.dtd">
<svg width="100%" height="100%" viewBox="0 0 109 22" version="1.1" xmlns="http://www.w3.org/2000/svg" xmlns:xlink="http://www.w3.org/1999/xlink" xml:space="preserve" xmlns:serif="http://www.serif.com/" style="fill-rule:evenodd;clip-rule:evenodd;stroke-linejoin:round;stroke-miterlimit:1.41421;">
    <g transform="matrix(1,0,0,1,-546.008,-14.1289)">
        <g transform="matrix(0.204934,0,0,0.204934,557.271,-113.586)">
            <path d="M247.1,632.2C250.7,632.2 253.5,635 253.5,638.2C253.5,641.8 250.3,645 246.3,645.4L245.9,645.4C242.3,645.4 239.5,642.6 239.5,639C239.5,635.7 242.7,632.5 247.1,632.2C246.7,632.2 246.7,632.2 247.1,632.2" style="fill:white;fill-rule:nonzero;"/>
        </g>
        <g transform="matrix(0.204934,0,0,0.204934,557.271,-113.586)">
            <path d="M401.2,634.4C402.8,634.4 404.4,635.2 406.4,636.8C405.6,638.4 404.8,640.4 404,642C403.6,642.8 403.6,643.6 404.8,644C407.6,645.6 410,647.2 412.8,648.8C416.4,651.2 417.2,654.4 415.6,658.8C413.6,663.2 412.4,668 410.4,672.4C410,672.8 410,673.6 410.4,674C410.4,675.2 411.2,675.6 412,675.6C412.4,675.6 412.8,675.2 413.6,674.8C415.2,673.6 416.8,672 418,670.4C424,662.8 428,654.4 432.4,646.4C434.4,642.8 436,639.2 438,635.2C441.2,636 444.8,636.4 448.4,637.2C446,648.4 448,659.2 447.6,670.4C448.4,670 448.8,669.6 449.6,668.8C452.8,664.8 456,661.2 458.8,656.8C459.6,656 460,655.6 460.8,655.6C461.2,655.6 461.6,655.6 462,656C463.2,656.8 465.2,657.2 463.6,659.2C460.8,664 457.6,668.4 453.6,672.4C448,677.6 441.6,680.4 434.8,680.4C432.8,680.4 430.8,680 428.4,679.6C426,679.2 424.4,677.6 421.6,676.4C424,674.8 426,673.2 428,672L428.4,672C428.8,672 429.2,672 429.6,672.4C430.4,672.8 431.2,672.8 432,672.8C434,672.8 435.2,671.6 436,669.6C436.4,668 436.8,666.4 436.8,664.8L436.8,650.4C436.4,650.4 436.4,650.4 436,650.4C435.6,651.2 435.2,651.6 434.8,652.4C430.8,658.8 427.2,665.6 423.2,672C421.2,674.8 418.8,677.6 416,679.6C413.6,681.6 410.4,682.8 407.2,682.8C406.4,682.8 405.6,682.8 404.8,682.4C401.2,681.6 399.2,679.6 398.8,676C398.4,672 399.6,668 401.2,664.4C402,662 403.2,659.6 404.4,657.2C405.6,654.8 404.8,652.8 402.8,651.6C402,651.2 401.6,650.8 400.8,650.4C398.8,654.4 396.8,658.4 394.4,662.4C390.4,669.6 385.2,676.4 377.6,681.2C372,684.8 366,686.8 359.6,686.8C358.8,686.8 357.6,686.8 356.4,686.8C350.8,686.4 347.2,683.6 346,678.4C346,678 346,677.6 345.6,677.6L345.2,677.2C338,685.2 329.2,690.4 318,690.4L317.6,690.4C313.6,690.4 310,689.6 307.6,686.4C308.8,685.2 310,684 311.6,682.8C312.8,683.6 314,683.6 314.8,683.6C316.4,683.6 317.2,682.8 318.8,680.8C323.6,674.4 326.8,667.2 328.4,659.6C328.4,658.8 328.4,658 328.4,657.2C328,655.6 327.6,654.8 326.4,654.8C326,654.8 325.6,654.8 324.8,655.2C320.4,656.8 317.6,660 315.6,664C310,677.6 304,691.6 298.4,705.2C297.6,706.8 297.2,707.2 295.6,707.2C292.4,707.2 289.2,707.6 285.6,708C288.8,700.8 291.6,693.6 294.4,686C287.6,690.4 280.8,694 274,694C270,694 266,692.8 261.6,690.4C262.8,689.2 263.6,688.8 264,688C264.8,687.2 265.2,686.8 266,686.4C267.2,687.2 268.4,687.6 269.2,687.6C270.4,687.6 271.2,686.8 272.8,685.2C278.4,678.4 282,670.8 283.2,662.4C283.6,660 282.8,658.4 280.8,658.4C280,658.4 278.8,658.8 278,659.2C274.4,661.2 272,664 270.4,667.6C264.8,681.2 259.2,695.2 253.6,709.2C252.8,710.8 252,711.2 250.4,711.6C247.2,711.6 244,712 240.4,712.4C243.2,705.6 246,698.8 248.8,692C247.6,692.8 246.8,693.6 246,694C242.8,696.4 239.6,697.6 236,698L235.6,698C231.2,698 228.4,695.6 227.6,691.6C226,693.2 224.4,694.8 222.4,696.4C219.6,698.4 216.8,700 213.6,700C212.8,700 212,700 211.2,699.6C207.6,698.8 205.6,696.4 205.2,693.2C204.8,689.2 206,684.8 207.6,681.2C208.4,678.8 209.6,676 210.8,673.6C212,671.2 211.6,669.2 209.2,667.6C208.4,667.2 208,666.8 207.2,666C206.8,666.8 206.4,668 206,668.8C202.4,676.8 198.4,684.4 192.8,691.2C188.8,696 184.4,700.4 178,702C175.2,702.8 173.6,702.8 172.4,702.8C172,702.8 171.6,702.8 171.2,702.8C166.4,702.4 164.4,699.6 164,694.8C162.4,696.4 161.2,697.6 160,698.8C157.2,701.6 153.6,703.6 149.6,704.4C148.4,704.8 147.2,704.8 146.4,704.8C142.8,704.8 140,702.8 138.4,699.2C136.4,700.8 134.4,702.8 132.4,704C129.6,705.6 126.8,706.8 124.8,706.8C120.4,706.8 117.2,703.6 116.4,697.6C114.8,699.6 113.2,701.2 111.6,702.8C108,706 104,708.4 99.2,708.8C98.8,708.8 98.4,708.8 98,708.8C94,708.8 91.6,706.8 90,702.8C89.2,703.6 88,704.8 87.2,705.6C84.8,707.2 82.4,709.2 79.6,710C78.4,710.4 77.2,710.8 76,710.8C71.6,710.8 68.4,707.6 68,702.4C68,701.6 68,700.4 68,700C64.8,701.2 61.6,703.2 58.4,703.6C55.2,704 53.2,705.6 50.8,707.6C46.8,711.6 41.6,713.6 36,714.4C35.6,714.4 35.2,714.4 34.8,714.4C27.6,714.4 22.8,710.4 22,703.2C20.8,692.8 27.2,676 38.8,669.6C42.4,667.6 45.6,666.8 49.2,666.8C50.4,666.8 51.2,666.8 52.4,667.2C58,668 62,672.8 62.4,679.2C62.8,684.8 61.2,690.4 59.2,696C58.8,696.8 58.8,697.2 58,698.8C60,698 62,697.2 63.6,696C66.8,693.6 69.6,690.4 70.8,686.8C72.8,680.8 75.6,675.2 80.4,670.4C82.8,668 85.6,666 89.2,665.2C90.4,664.8 91.2,664.8 92,664.8C95.6,664.8 98.4,666.8 100.8,670.8C105.2,668.8 110,666.8 114.8,664.4C114.4,665.6 114,666.4 114,667.2C110.4,676 106.8,684.4 103.6,693.2C102.8,695.2 102.4,697.2 102,699.2C101.6,700.8 102.4,702 103.6,702C104,702 104.8,702 105.6,701.2C106.8,700.4 108.4,699.6 109.6,698.4C114.4,693.6 118.4,688 120.4,681.6C122.4,676 125.2,670.8 129.2,666.4C130.4,665.2 132,664 133.6,662.8C136,661.2 138.4,660.4 140.8,660.4C144.4,660.4 147.6,662.4 149.6,666C150.4,663.6 151.6,661.6 152.4,659.6C154.4,654.8 156.4,650.4 158,645.6C158.8,644 159.2,643.6 160.8,643.6C164,643.6 167.2,643.2 170.8,642.8C170.4,643.6 170,644 169.6,644.8C163.6,659.2 158,673.6 152,688C151.2,690 150.8,692 150.4,694.4C150,696 150.8,696.8 151.6,696.8C152,696.8 152.4,696.8 153.2,696.4C155.2,695.2 157.2,693.6 159.2,691.6C164,686.4 167.6,680.8 170.4,674C172.4,668.8 174.4,663.6 176.8,658C174.4,658 172,658.4 169.6,658.4C170.4,656.4 171.2,654.4 172,652.8C172,652.4 172.8,652 173.6,652C174,652 174.8,652 175.2,652C179.2,652 180.8,649.6 182,645.6C183.6,640.4 184,640.8 189.2,640.4C191.6,640.4 193.6,640 196,640C194.4,643.6 193.2,646.8 191.6,650.4C194,650.4 196,650 198.8,650C198,652 197.2,654 196.4,656C194.4,656 192.4,656 190.8,656.4C190,656.4 189.2,657.2 188.8,657.6C184.8,667.2 181.2,676.8 177.2,686C176.4,687.6 176,689.6 176,691.2C176,692.8 176.4,693.6 177.6,693.6C178,693.6 178.4,693.6 179.2,693.2C182,691.6 184.4,689.6 186.4,687.6C191.6,682 195.2,675.6 198.4,668.8C198.8,667.6 199.2,666.4 200,665.6C201.2,663.6 202,661.6 200,659.2C199.2,658.4 199.2,656.8 199.6,655.6C199.6,654.8 200.4,652.8 201.2,652C203.2,649.2 205.2,647.6 207.2,647.6C208.8,647.6 210.4,648.4 212.4,650C211.6,651.6 210.8,653.6 210,655.2C209.6,656.4 209.6,656.8 210.8,657.6C213.6,659.2 216,660.8 218.8,662.8C222.4,665.2 223.2,668.8 221.6,673.2C219.6,678 218.4,682.4 216.4,687.2C216,688 216,688.4 216.4,689.2C216.4,690 217.2,690.8 218,690.8C218.4,690.8 218.8,690.8 219.2,690.4C220.8,689.2 222.4,687.6 223.6,686C227.6,681.2 230.4,676 232.4,670.4C234.4,665.2 236.8,660 238.8,654.4C239.2,653.2 240,652.8 241.2,652.8C244.8,652.8 248,652.4 251.6,652C251.2,652.8 251.2,653.2 250.8,654C247.2,662.8 243.2,672 240,680.8C239.2,683.2 238.8,685.2 238.4,687.2C238.4,688.4 238.8,689.2 239.6,689.2C240,689.2 240.4,689.2 240.8,688.8C243.2,687.2 245.6,685.6 247.2,683.6C251.6,678.8 255.2,673.2 257.6,667.2C259.6,661.6 262,656.4 264.4,650.8C267.2,651.6 270.4,652.4 273.2,653.2C273.6,653.2 274,653.2 274.4,653.2C275.2,653.2 275.6,652.8 276.4,652.4C278.8,650 281.6,648.4 285.2,648.4C285.6,648.4 286,648.4 286.4,648.4C290,648.4 292.4,650 293.6,653.6C295.2,657.6 294.4,662 293.2,666.4C291.2,673.2 288,679.6 284,685.6C283.6,686 283.6,686.4 282.8,687.2C286.8,685.2 290,683.2 292.4,680.4C296.8,676 300,671.2 302.4,666C304.8,660 307.2,654.4 309.6,648C312.4,648.8 315.2,649.6 318.4,650.4C318.8,650.4 319.2,650.8 319.6,650.8C320.4,650.8 320.8,650.4 321.6,650C324,647.6 326.8,646.4 330.4,646C330.8,646 331.2,646 331.6,646C335.2,646 337.6,647.6 339.2,651.2C340.8,655.2 340,659.6 338.8,663.6C336.8,670.4 333.6,676.8 329.6,682.4C329.2,682.8 328.8,683.2 328.8,683.6L329.2,684C331.2,682.4 333.6,681.2 335.6,679.6C341.2,674.8 345.6,669.6 348,663.2C350.8,656 355.2,650 362.4,645.6C365.2,643.6 368.8,642.8 372.4,642.8C373.2,642.8 374,642.8 374.8,642.8C382.4,643.6 385.6,648.8 383.6,655.6C380.8,664.8 374.4,670 364.4,670.8C362.8,670.8 361.2,671.2 359.2,671.2C358.8,671.2 358.4,671.2 358.4,671.2C357.2,671.2 356.8,672 356.8,672.8C356,677.6 358.4,680 363.6,680C364,680 364,680 364.4,680C368.8,680 372.8,678 376.4,675.6C382,671.6 386.4,666.8 389.6,661.2C391.6,657.6 393.6,653.6 395.6,649.6C396,649.2 396,648 395.6,647.6C392.4,644.4 393.6,640.8 396,638C397.6,635.6 399.3,634.4 401.2,634.4" style="fill:white;fill-rule:nonzero;"/>
        </g>
        <g transform="matrix(0.204934,0,0,0.204934,557.271,-113.586)">
            <path d="M-2.4,645.6C2.8,645.6 8,646.4 13.6,647.6C17.6,648.4 21.6,650.4 24.4,654C28.8,659.6 28.4,668 23.6,673.6C18.9,679.2 12.8,682 6,684C6,684.4 6.4,684.4 6.4,684.4C12,687.6 14,692.4 14,698.4C14,701.6 14.4,704.4 14.8,707.2C15.2,709.6 16.8,711.6 19.2,712.4L19.6,712.4C20.8,712.4 22,712 22.8,712C23.6,712 24,712.4 23.6,713.6C22.8,717.6 17.6,718.8 12.8,718.8C10.4,718.8 8.4,718.4 7.2,718C2.8,716.8 0,712.8 -0.4,707.2C-0.4,703.2 -0.4,698.8 -0.4,694.4C-0.4,692.4 -0.8,690.8 -1.6,689.2C-2.4,686.8 -5.6,684.8 -8,684.8C-8.4,684.8 -8.8,684.8 -9.2,684.8C-9.6,684.8 -10.4,685.6 -10.4,686.4C-12.8,695.2 -15.2,703.6 -17.6,712.4C-18,714.4 -18.8,716 -21.2,716.8C-23.6,717.6 -25.6,718 -28,719.2C-28.8,719.6 -29.2,719.6 -29.6,719.6C-31.6,719.6 -32.4,718 -32,715.2C-31.2,711.6 -30.4,708 -29.6,704.8C-25.2,690.4 -20.8,676 -16.4,661.6C-14.8,656 -11.2,653.2 -6.4,651.2C-5.6,650.8 -5.2,650.8 -4,650L-8.8,650C-17.2,650.8 -25.2,652.8 -31.6,658C-33.6,659.6 -35.2,662 -36.4,664C-37.6,666.4 -36.8,668.4 -34.8,670C-34,670.8 -32.8,671.2 -31.6,672.4C-28.8,674.8 -27.6,677.6 -29.2,680.8C-30.4,683.2 -33.2,685.2 -36,685.2C-47.6,685.2 -49.6,669.6 -42,660.4C-37.6,655.2 -32,652 -26,650C-17.7,647.1 -10,645.6 -2.4,645.6" style="fill:white;fill-rule:nonzero;"/>
        </g>
        <g transform="matrix(0.204934,0,0,0.204934,557.271,-113.586)">
            <path d="M246.8,632.4C250.4,632.4 253.2,635.2 253.2,638.4C253.2,642 250,645.2 246,645.6L245.6,645.6C242,645.6 239.2,642.8 239.2,639.2C239.2,636 242.4,632.7 246.8,632.4C246.4,632.4 246.4,632.4 246.8,632.4M401.2,634.4C402.8,634.4 404.4,635.2 406.4,636.8C405.6,638.4 404.8,640.4 404,642C403.6,642.8 403.6,643.6 404.8,644C407.6,645.6 410,647.2 412.8,648.8C416.4,651.2 417.2,654.4 415.6,658.8C413.6,663.2 412.4,668 410.4,672.4C410,672.8 410,673.6 410.4,674C410.4,675.2 411.2,675.6 412,675.6C412.4,675.6 412.8,675.2 413.6,674.8C415.2,673.6 416.8,672 418,670.4C424,662.8 428,654.4 432.4,646.4C434.4,642.8 436,639.2 438,635.2C441.2,636 444.8,636.4 448.4,637.2C446,648.4 448,659.2 447.6,670.4C448.4,670 448.8,669.6 449.6,668.8C452.8,664.8 456,661.2 458.8,656.8C459.6,656 460,655.6 460.8,655.6C461.2,655.6 461.6,655.6 462,656C463.2,656.8 465.2,657.2 463.6,659.2C460.8,664 457.6,668.4 453.6,672.4C448,677.6 441.6,680.4 434.8,680.4C432.8,680.4 430.8,680 428.4,679.6C426,679.2 424.4,677.6 421.6,676.4C424,674.8 426,673.2 428,672L428.4,672C428.8,672 429.2,672 429.6,672.4C430.4,672.8 431.2,672.8 432,672.8C434,672.8 435.2,671.6 436,669.6C436.4,668 436.8,666.4 436.8,664.8L436.8,650.4C436.4,650.4 436.4,650.4 436,650.4C435.6,651.2 435.2,651.6 434.8,652.4C430.8,658.8 427.2,665.6 423.2,672C421.2,674.8 418.8,677.6 416,679.6C413.6,681.6 410.4,682.8 407.2,682.8C406.4,682.8 405.6,682.8 404.8,682.4C401.2,681.6 399.2,679.6 398.8,676C398.4,672 399.6,668 401.2,664.4C402,662 403.2,659.6 404.4,657.2C405.6,654.9 404.8,652.8 402.8,651.6C402,651.2 401.6,650.8 400.8,650.4C398.8,654.4 396.8,658.4 394.4,662.4C390.4,669.6 385.2,676.4 377.6,681.2C372,684.8 366,686.8 359.6,686.8C358.8,686.8 357.6,686.8 356.4,686.8C350.8,686.4 347.2,683.6 346,678.4C346,678 346,677.6 345.6,677.6L345.2,677.2C338,685.2 329.2,690.4 318,690.4L317.6,690.4C313.6,690.4 310,689.6 307.6,686.4C308.8,685.2 310,684 311.6,682.8C312.8,683.6 314,683.6 314.8,683.6C316.4,683.6 317.2,682.8 318.8,680.8C323.6,674.4 326.8,667.2 328.4,659.6C328.4,658.8 328.4,658 328.4,657.2C328,655.6 327.6,654.8 326.4,654.8C326,654.8 325.6,654.8 324.8,655.2C320.4,656.8 317.6,660 315.6,664C310,677.6 304,691.6 298.4,705.2C297.6,706.8 297.2,707.2 295.6,707.2C292.4,707.2 289.2,707.6 285.6,708C288.8,700.8 291.6,693.6 294.4,686C287.6,690.4 280.8,694 274,694C270,694 266,692.8 261.6,690.4C262.8,689.2 263.6,688.8 264,688C264.8,687.2 265.2,686.8 266,686.4C267.2,687.2 268.4,687.6 269.2,687.6C270.4,687.6 271.2,686.8 272.8,685.2C278.4,678.4 282,670.8 283.2,662.4C283.6,660 282.8,658.4 280.8,658.4C280,658.4 278.8,658.8 278,659.2C274.4,661.2 272,664 270.4,667.6C264.8,681.2 259.2,695.2 253.6,709.2C252.8,710.8 252,711.2 250.4,711.6C247.2,711.6 244,712 240.4,712.4C243.2,705.6 246,698.8 248.8,692C247.6,692.8 246.8,693.6 246,694C242.8,696.4 239.6,697.6 236,698L235.6,698C231.2,698 228.4,695.6 227.6,691.6C226,693.2 224.4,694.8 222.4,696.4C219.6,698.4 216.8,700 213.6,700C212.8,700 212,700 211.2,699.6C207.6,698.8 205.6,696.4 205.2,693.2C204.8,689.2 206,684.8 207.6,681.2C208.4,678.8 209.6,676 210.8,673.6C212,671.2 211.6,669.2 209.2,667.6C208.4,667.2 208,666.8 207.2,666C206.8,666.8 206.4,668 206,668.8C202.4,676.8 198.4,684.4 192.8,691.2C188.8,696 184.4,700.4 178,702C175.2,702.8 173.6,702.8 172.4,702.8C172,702.8 171.6,702.8 171.2,702.8C166.4,702.4 164.4,699.6 164,694.8C162.4,696.4 161.2,697.6 160,698.8C157.2,701.6 153.6,703.6 149.6,704.4C148.4,704.8 147.2,704.8 146.4,704.8C142.8,704.8 140,702.8 138.4,699.2C136.4,700.8 134.4,702.8 132.4,704C129.6,705.6 126.8,706.8 124.8,706.8C120.4,706.8 117.2,703.6 116.4,697.6C114.8,699.6 113.2,701.2 111.6,702.8C108,706 104,708.4 99.2,708.8C98.8,708.8 98.4,708.8 98,708.8C94,708.8 91.6,706.8 90,702.8C89.2,703.6 88,704.8 87.2,705.6C84.8,707.2 82.4,709.2 79.6,710C78.4,710.4 77.2,710.8 76,710.8C71.6,710.8 68.4,707.6 68,702.4C68,701.6 68,700.4 68,700C64.8,701.2 61.6,703.2 58.4,703.6C55.2,704 53.2,705.6 50.8,707.6C46.8,711.6 41.6,713.6 36,714.4C35.6,714.4 35.2,714.4 34.8,714.4C27.6,714.4 22.8,710.4 22,703.2C20.8,692.8 27.2,676 38.8,669.6C42.4,667.6 45.6,666.8 49.2,666.8C50.4,666.8 51.2,666.8 52.4,667.2C58,668 62,672.8 62.4,679.2C62.8,684.8 61.2,690.4 59.2,696C58.8,696.8 58.8,697.2 58,698.8C60,698 62,697.2 63.6,696C66.8,693.6 69.6,690.4 70.8,686.8C72.8,680.8 75.6,675.2 80.4,670.4C82.8,668 85.6,666 89.2,665.2C90.4,664.8 91.2,664.8 92,664.8C95.6,664.8 98.4,666.8 100.8,670.8C105.2,668.8 110,666.8 114.8,664.4C114.4,665.6 114,666.4 114,667.2C110.4,676 106.8,684.4 103.6,693.2C102.8,695.2 102.4,697.2 102,699.2C101.6,700.8 102.4,702 103.6,702C104,702 104.8,702 105.6,701.2C106.8,700.4 108.4,699.6 109.6,698.4C114.4,693.6 118.4,688 120.4,681.6C122.4,676 125.2,670.8 129.2,666.4C130.4,665.2 132,664 133.6,662.8C136,661.2 138.4,660.4 140.8,660.4C144.4,660.4 147.6,662.4 149.6,666C150.4,663.6 151.6,661.6 152.4,659.6C154.4,654.8 156.4,650.4 158,645.6C158.8,644 159.2,643.6 160.8,643.6C164,643.6 167.2,643.2 170.8,642.8C170.4,643.6 170,644 169.6,644.8C163.6,659.2 158,673.6 152,688C151.2,690 150.8,692 150.4,694.4C150,696 150.8,696.8 151.6,696.8C152,696.8 152.4,696.8 153.2,696.4C155.2,695.2 157.2,693.6 159.2,691.6C164,686.4 167.6,680.8 170.4,674C172.4,668.8 174.4,663.6 176.8,658C174.4,658 172,658.4 169.6,658.4C170.4,656.4 171.2,654.4 172,652.8C172,652.4 172.8,652 173.6,652C174,652 174.8,652 175.2,652C179.2,652 180.8,649.6 182,645.6C183.6,640.4 184,640.8 189.2,640.4C191.6,640.4 193.6,640 196,640C194.4,643.6 193.2,646.8 191.6,650.4C194,650.4 196,650 198.8,650C198,652 197.2,654 196.4,656C194.4,656 192.4,656 190.8,656.4C190,656.4 189.2,657.2 188.8,657.6C184.8,667.2 181.2,676.8 177.2,686C176.4,687.6 176,689.6 176,691.2C176,692.8 176.4,693.6 177.6,693.6C178,693.6 178.4,693.6 179.2,693.2C182,691.6 184.4,689.6 186.4,687.6C191.6,682 195.2,675.6 198.4,668.8C198.8,667.6 199.2,666.4 200,665.6C201.2,663.6 202,661.6 200,659.2C199.2,658.4 199.2,656.8 199.6,655.6C199.6,654.8 200.4,652.8 201.2,652C203.2,649.2 205.2,647.6 207.2,647.6C208.8,647.6 210.4,648.4 212.4,650C211.6,651.6 210.8,653.6 210,655.2C209.6,656.4 209.6,656.8 210.8,657.6C213.6,659.2 216,660.8 218.8,662.8C222.4,665.2 223.2,668.8 221.6,673.2C219.6,678 218.4,682.4 216.4,687.2C216,688 216,688.4 216.4,689.2C216.4,690 217.2,690.8 218,690.8C218.4,690.8 218.8,690.8 219.2,690.4C220.8,689.2 222.4,687.6 223.6,686C227.6,681.2 230.4,676 232.4,670.4C234.4,665.2 236.8,660 238.8,654.4C239.2,653.2 240,652.8 241.2,652.8C244.8,652.8 248,652.4 251.6,652C251.2,652.8 251.2,653.2 250.8,654C247.2,662.8 243.2,672 240,680.8C239.2,683.2 238.8,685.2 238.4,687.2C238.4,688.4 238.8,689.2 239.6,689.2C240,689.2 240.4,689.2 240.8,688.8C243.2,687.2 245.6,685.6 247.2,683.6C251.6,678.8 255.2,673.2 257.6,667.2C259.6,661.6 262,656.4 264.4,650.8C267.2,651.6 270.4,652.4 273.2,653.2C273.6,653.2 274,653.2 274.4,653.2C275.2,653.2 275.6,652.8 276.4,652.4C278.8,650 281.6,648.4 285.2,648.4C285.6,648.4 286,648.4 286.4,648.4C290,648.4 292.4,650 293.6,653.6C295.2,657.6 294.4,662 293.2,666.4C291.2,673.2 288,679.6 284,685.6C283.6,686 283.6,686.4 282.8,687.2C286.8,685.2 290,683.2 292.4,680.4C296.8,676 300,671.2 302.4,666C304.8,660 307.2,654.4 309.6,648C312.4,648.8 315.2,649.6 318.4,650.4C318.8,650.4 319.2,650.8 319.6,650.8C320.4,650.8 320.8,650.4 321.6,650C324,647.6 326.8,646.4 330.4,646C330.8,646 331.2,646 331.6,646C335.2,646 337.6,647.6 339.2,651.2C340.8,655.2 340,659.6 338.8,663.6C336.8,670.4 333.6,676.8 329.6,682.4C329.2,682.8 328.8,683.2 328.8,683.6L329.2,684C331.2,682.4 333.6,681.2 335.6,679.6C341.2,674.8 345.6,669.6 348,663.2C350.8,656 355.2,650 362.4,645.6C365.2,643.6 368.8,642.8 372.4,642.8C373.2,642.8 374,642.8 374.8,642.8C382.4,643.6 385.6,648.8 383.6,655.6C380.8,664.8 374.4,670 364.4,670.8C362.8,670.8 361.2,671.2 359.2,671.2C358.8,671.2 358.4,671.2 358.4,671.2C357.2,671.2 356.8,672 356.8,672.8C356,677.6 358.4,680 363.6,680C364,680 364,680 364.4,680C368.8,680 372.8,678 376.4,675.6C382,671.6 386.4,666.8 389.6,661.2C391.6,657.6 393.6,653.6 395.6,649.6C396,649.2 396,648 395.6,647.6C392.4,644.4 393.6,640.8 396,638C397.6,635.6 399.3,634.4 401.2,634.4M361.6,664.4C364.4,664.4 367.2,663.6 368.8,661.6C370.4,660 371.2,658 372.4,656C373.2,654.8 374,653.2 372.4,652C372,651.6 371.6,651.6 371.2,651.6C369.6,651.6 366.8,653.2 366.8,653.2C363.2,656 361.2,660 359.2,664C360,664.4 360.9,664.4 361.6,664.4M130.8,696C131.2,696 132,696 132.4,695.6C136,694.4 138.8,691.6 140.4,688C142.4,683.6 144,679.2 146,674.8C146.8,672.8 146,670.8 144.8,669.6C144,669.2 143.6,668.8 142.8,668.8C141.6,668.8 140.8,669.2 139.6,670C139.2,670.4 138.4,670.8 138,671.2C132.4,677.6 129.6,684.8 128.4,692C128.4,694.8 129.2,696 130.8,696M82.4,699.9C82.8,699.9 83.6,699.9 84,699.5C88,697.9 90.4,695.1 92,691.5C94,687.5 95.2,683.1 97.2,679.1C98,676.7 97.6,674.3 96,673.1C95.6,672.7 94.8,672.7 94.4,672.7C93.2,672.7 91.6,673.5 90.4,674.7C90,675.1 90,675.1 89.6,675.5C84,681.9 81.6,689.1 80,696.3C80,698.7 80.8,699.9 82.4,699.9M36.8,705.2C37.6,705.2 38.4,704.8 38.8,704.4C40.8,703.2 42.4,701.6 44.4,700C43.6,698.8 43.6,698.4 43.2,698C41.6,694.4 43.6,689.6 47.6,688.8C49.2,688.4 50,687.6 50.4,686.4C50.8,685.2 51.2,683.6 51.6,682.4C52,680.4 52,678.4 51.6,676.4C51.2,674.8 50.4,674 49.2,674C48.8,674 48,674 47.2,674.4C45.6,675.2 43.6,676.8 42.4,678.4C38.4,683.6 35.6,689.6 34.4,696C34,698.4 33.6,700.4 34,702.8C34.4,704.3 35.2,705.2 36.8,705.2M-2.4,645.6C2.8,645.6 8,646.4 13.6,647.6C17.6,648.4 21.6,650.4 24.4,654C28.8,659.6 28.4,668 23.6,673.6C18.9,679.2 12.8,682 6,684C6,684.4 6.4,684.4 6.4,684.4C12,687.6 14,692.4 14,698.4C14,701.6 14.4,704.4 14.8,707.2C15.2,709.6 16.8,711.6 19.2,712.4L19.6,712.4C20.8,712.4 22,712 22.8,712C23.6,712 24,712.4 23.6,713.6C22.8,717.6 17.6,718.8 12.8,718.8C10.4,718.8 8.4,718.4 7.2,718C2.8,716.8 0,712.8 -0.4,707.2C-0.4,703.2 -0.4,698.8 -0.4,694.4C-0.4,692.4 -0.8,690.8 -1.6,689.2C-2.4,686.8 -5.6,684.8 -8,684.8C-8.4,684.8 -8.8,684.8 -9.2,684.8C-9.6,684.8 -10.4,685.6 -10.4,686.4C-12.8,695.2 -15.2,703.6 -17.6,712.4C-18,714.4 -18.8,716 -21.2,716.8C-23.6,717.6 -25.6,718 -28,719.2C-28.8,719.6 -29.2,719.6 -29.6,719.6C-31.6,719.6 -32.4,718 -32,715.2C-31.2,711.6 -30.4,708 -29.6,704.8C-25.2,690.4 -20.8,676 -16.4,661.6C-14.8,656 -11.2,653.2 -6.4,651.2C-5.6,650.8 -5.2,650.8 -4,650L-8.8,650C-17.2,650.8 -25.2,652.8 -31.6,658C-33.6,659.6 -35.2,662 -36.4,664C-37.6,666.4 -36.8,668.4 -34.8,670C-34,670.8 -32.8,671.2 -31.6,672.4C-28.8,674.8 -27.6,677.6 -29.2,680.8C-30.4,683.2 -33.2,685.2 -36,685.2C-47.6,685.2 -49.6,669.6 -42,660.4C-37.6,655.2 -32,652 -26,650C-17.6,647.1 -10,645.6 -2.4,645.6M-5.6,682.3C-4.8,682.3 -4.4,682.3 -3.2,681.9L-2.8,681.9C6.4,679.9 13.2,671.1 13.2,660.7C13.2,656.7 12.4,653.5 8.4,651.5C7.2,650.7 6.4,650.7 5.6,650.7C4.4,650.7 3.6,651.5 2.4,653.5C1.6,654.3 1.2,655.5 0.8,656.3C-2,663.5 -4.4,670.3 -6.8,677.5C-8.8,681.1 -8.4,682.3 -5.6,682.3M246.8,623.6C246.4,623.6 246,623.6 246,623.6C237.2,624 230.8,630.8 230.4,639.2C230.4,642.4 231.2,645.2 232.8,648C232,649.2 231.2,650.4 230.4,651.6C229.6,653.6 228.8,655.6 228,658C228,658.4 227.6,658.8 227.6,659.2C226.8,658 225.6,657.2 224.4,656.4C223.6,655.6 222.4,654.8 221.2,654.4C222.8,650.4 221.2,646 218,643.6C215.6,642 212,639.6 207.2,639.6C206.4,639.6 206,639.6 205.2,639.6C205.2,638 204.4,636.4 203.6,635.2C202,632.8 199.2,631.2 196.4,631.2C196,631.2 196,631.2 195.6,631.2L190.4,631.6L188.4,631.6L188,631.6C184.8,632 181.6,632 178.4,634.4C178,634.8 177.2,635.2 176.8,635.6C175.2,634 172.8,632.8 170.4,632.8C170,632.8 170,632.8 169.6,632.8C168.4,632.8 167.6,632.8 166.4,633.2C164.8,633.6 162.8,633.6 160.8,633.6C155.6,633.6 151.6,636.4 149.6,641.6C148.4,644.8 147.2,648 145.6,651.2C144,650.8 142.4,650.4 140.8,650.4C136.8,650.4 132.8,651.6 128.8,654C126.8,655.2 125.2,656.4 123.6,658C123.2,657.2 122.4,656.4 121.6,655.6C120,654 117.6,653.2 115.6,653.2C114.4,653.2 113.2,653.6 111.6,654C108.8,655.2 106,656.4 103.6,657.6C100.4,655.2 96.8,653.6 92.4,653.6C90.8,653.6 89.2,653.6 87.6,654C82.8,655.2 78,657.6 74,661.6C72.4,663.2 70.8,665.2 69.6,667.2C66.8,661.6 61.2,657.6 54.4,656.4C52.8,656 51.2,656 50,656C45.2,656 40.8,657.2 36.4,659.2C36,655.2 34,651.2 31.6,647.6C28,642.8 22.4,639.6 15.6,638C9.6,636.4 3.6,636 -2.4,636C-11.2,636 -20,637.6 -28.4,640.4C-37.2,643.6 -43.6,647.6 -48.4,653.6C-55.2,661.6 -56.8,673.6 -52.8,682.4C-49.6,689.2 -42.8,693.6 -35.2,693.6C-36,696.4 -36.8,699.2 -37.6,701.6C-38.4,704.8 -39.2,708 -40,710.8C-40,711.6 -40.4,712 -40.4,712.8C-41.6,718.8 -39.6,722.4 -38,724C-36,726.8 -32.4,728.4 -29.2,728.4C-27.6,728.4 -26,728 -24.4,727.6C-23.2,727.2 -22,726.8 -20.4,726.4C-19.6,726 -18.8,726 -18,725.6C-13.2,724 -10,720.4 -8.4,714.8C-8.4,714.4 -8.4,714 -8,713.6C-6,720 -1.2,724.8 5.2,726.8C7.6,727.6 10.4,727.6 13.2,727.6C20.8,727.6 26.8,725.2 30,721.2C31.6,721.6 33.6,722 35.6,722C36.4,722 36.8,722 37.6,722C45.2,721.6 52.4,718.4 58,712.8C59.6,711.6 60,711.2 60.4,711.2C61.2,711.2 61.6,710.8 62.4,710.8C65.6,715.6 70.8,718.8 76.8,718.8C78.8,718.8 81.2,718.4 83.2,717.6C85.6,716.8 87.6,715.6 89.2,714.4C92,716 94.8,716.8 98.4,716.8C99.2,716.8 99.6,716.8 100.4,716.8C105.6,716.4 110.4,714.4 114.8,711.2C118,713.6 121.6,714.8 125.2,714.8C129.2,714.8 133.6,713.6 137.6,710.8L138,710.8C141.2,712.8 144.8,713.2 146.8,713.2C148.4,713.2 150.4,712.8 152,712.4C155.6,711.6 158.8,710 162,708C164.4,709.6 167.2,710.8 170.4,710.8C171.2,710.8 171.6,710.8 172.4,710.8C174.4,710.8 176.8,710.4 178.8,710C186.8,708 192.4,702.8 196.8,698C198.8,702.8 203.2,706 208.8,707.2C210,707.6 211.2,707.6 212.8,707.6C217.2,707.6 221.6,706.4 225.6,703.6C227.6,704.8 229.6,705.6 232,705.6C231.6,706.4 231.2,707.2 231.2,708C230,710.8 230.4,714.4 232.4,716.8C234,719.2 236.8,720.4 239.6,720.4C240,720.4 240,720.4 240.4,720.4C241.6,720.4 242.4,720.4 243.6,720C246,719.6 248,719.6 250,719.6C255.2,719.2 259.2,716.4 261.2,711.6C262.4,708 264,704.8 265.2,701.2C268,702 270.8,702.4 273.6,702.4C274.8,702.4 276,702.4 277.2,702L276.4,703.6C275.2,706.4 275.6,710 277.6,712.4C279.2,714.8 282,716 284.8,716C285.2,716 285.2,716 285.6,716C286.8,716 287.6,716 288.8,715.6C291.2,715.2 293.2,715.2 295.2,715.2C300.4,714.8 304.4,712.4 306,707.6C307.2,704 308.8,700.8 310,697.6C312,698 314,698.4 316.4,698.4C316.8,698.4 316.8,698.4 317.2,698.4C326.4,698.4 334.8,695.6 342.4,690C345.6,692.8 349.6,694.4 354.8,694.8C356,694.8 357.6,695.2 358.8,695.2C366.8,695.2 374.4,692.8 382,688C385.2,686 387.6,684 390,681.6C392,686.8 396.4,690 402.4,691.2C403.6,691.6 405.2,691.6 406.4,691.6C411.6,691.6 416.4,690 420.4,686.4C421.6,687.2 423.2,687.6 425.2,688C428,688.8 430.8,688.8 433.6,688.8C442.4,688.8 450.8,685.2 458.4,678.4C464,673.6 467.6,667.6 470.4,663.2C472.8,659.6 472.4,656.4 472,654.4C470.8,650 467.2,648 466,647.2C464,646 462,645.2 460,645.2C458.4,645.2 457.2,645.6 456,646C456,643.2 456.4,640.4 456.8,638C457.2,635.6 456.8,633.2 455.6,630.8C454.4,628.8 452,627.2 449.6,626.8C446,626 442.4,625.6 439.2,624.8C438.4,624.8 438,624.8 437.6,624.8C434.4,624.8 431.2,626.8 429.6,629.6C428.8,630.8 428.4,632 427.6,633.2C426.4,635.6 425.2,638 424,640.4C423.2,641.6 422.8,642.4 422.4,643.6C421.2,642 420,640.8 418,639.6C417.2,638.8 416,638.4 415.2,637.6C416.4,633.6 415.2,629.6 411.6,627.2C409.2,625.2 405.6,623.2 401.2,623.2C394.4,623.2 390.4,628.4 388.8,630C387.6,631.6 386.4,633.2 386,634.8C383.2,632.8 380,632 376.4,631.2C375.2,631.2 374,630.8 372.8,630.8C367.6,630.8 362.8,632 358,634.8C354,637.2 350.8,640 347.6,643.6C344.8,637.6 339.2,634 332.4,634C331.6,634 331.2,634 330.4,634C326.4,634.4 322.4,636 318.8,638.4C317.6,638 316.4,637.6 315.6,637.6C314.8,637.2 314,637.2 313.2,636.8C312,638.8 311.6,638.8 310.4,638.8C306.8,638.8 303.2,640.8 302,644.4C301.6,645.2 301.2,646 300.8,646.8C297.6,642 292.8,639.2 286.8,639.2C286,639.2 285.6,639.2 284.8,639.2C280.8,639.6 276.8,641.2 273.2,643.6C272,643.2 270.8,642.8 270,642.8C269.2,642.8 268.4,642.8 267.6,642.4C266.8,642 266,642 265.2,642C264,642 263.2,642 262,642.4C262.4,641.2 262.4,639.6 262.4,638.4C262.4,634.4 260.8,630.8 258,628C254.8,625.1 250.8,623.6 246.8,623.6" style="fill:rgb(26,42,69);fill-rule:nonzero;"/>
        </g>
    </g>
</svg>
